<svg width="1600" height="405" viewBox="0 0 1600 405" fill="none" xmlns="http://www.w3.org/2000/svg">
<path d="M1393.67 239.272C1387.73 236.967 1380.97 234.695 1375.3 237.679C1369.12 240.929 1366.92 248.957 1365.37 256.094L1363.31 265.536C1359.65 257.245 1355.51 249.208 1350.9 241.47C1349.44 238.844 1347.7 236.401 1345.72 234.185C1341.3 229.522 1335.22 227.186 1329.35 224.988C1325.44 223.522 1321.43 222.046 1317.29 222.141C1313.15 222.237 1308.79 224.265 1306.92 228.174C1303.47 219.678 1292.54 219.593 1283.92 218.743C1271.6 217.511 1259.92 212.063 1247.56 211.043C1235.2 210.024 1222.76 213.539 1210.7 217.033C1209.09 217.5 1207.37 218.095 1206.29 219.401C1205.81 220.069 1205.45 220.82 1205.21 221.621C1201.64 232.815 1210.77 243.69 1219.08 251.559L1239.88 271.292C1241.51 273.032 1243.42 274.437 1245.53 275.434C1250.88 277.558 1256.62 274.106 1261.41 270.814C1256.41 278.014 1261.41 288.656 1268.41 293.499C1275.41 298.341 1284.16 299.807 1291.53 304.119C1296.84 307.241 1301.37 311.797 1306.88 314.505C1312.39 317.214 1319.68 317.596 1323.88 312.923C1321.53 317.097 1326.27 321.642 1330.33 323.872C1351.54 335.479 1373.37 345.762 1395.7 354.671C1424.7 366.237 1455.99 375.561 1486.26 368.775C1494.85 366.852 1503.32 363.571 1510.26 357.857C1517.2 352.144 1522.5 343.817 1523.54 334.556C1525.22 319.593 1515.91 305.797 1505.84 295.166C1492.84 281.413 1478.08 268.743 1460.07 263.974C1437.48 258.048 1415.55 247.757 1393.67 239.272Z" fill="#323A14"/>
<path d="M1210.3 224.074C1276.3 252.866 1348.3 280.744 1426.08 306.222C1462.84 318.258 1498.82 329.126 1534.01 338.826C1532.42 341.969 1530.83 345.113 1529.22 348.256C1495.41 339.293 1460.22 328.758 1424.07 316.332C1350.78 291.203 1279.33 260.367 1210.3 224.074Z" fill="#789022"/>
<path d="M1390.74 232.517C1388.02 227.388 1385.21 221.515 1386.83 215.886C1388.6 209.758 1394.83 206.604 1400.4 204.204L1407.79 201.018C1400.53 198.841 1393.4 196.184 1386.45 193.063C1384.11 192.087 1381.88 190.84 1379.79 189.346C1375.37 185.958 1372.61 180.712 1369.99 175.635C1368.24 172.269 1366.46 168.796 1365.99 165.015C1365.52 161.234 1366.5 156.922 1369.43 154.65C1362.05 152.685 1360.43 142.681 1358.43 134.864C1355.69 123.745 1349.59 113.794 1347.01 102.621C1344.43 91.4488 1345.51 79.5117 1346.64 67.9675C1346.65 66.4001 1347.1 64.8719 1347.94 63.5813C1348.41 63.0439 1348.97 62.6014 1349.59 62.2751C1358.19 57.4004 1368.33 64.2398 1375.91 70.7713L1394.91 87.0414C1396.56 88.2872 1397.97 89.8464 1399.08 91.6399C1401.54 96.2491 1399.57 101.995 1397.58 106.859C1402.73 101.262 1412.09 104.299 1417.03 110.098C1421.97 115.897 1424.4 123.649 1428.96 129.788C1432.26 134.227 1436.61 137.721 1439.6 142.394C1442.59 147.067 1443.93 153.694 1440.72 158.207C1443.78 155.457 1448.16 159.153 1450.54 162.562C1463 180.362 1474.48 198.915 1484.91 218.127C1498.43 243.052 1510.47 270.463 1509.26 299.191C1508.91 307.337 1507.44 315.578 1503.79 322.757C1500.14 329.936 1494.11 335.979 1486.73 338.252C1474.79 341.916 1462.26 335.342 1452.18 327.632C1439.18 317.638 1426.75 305.935 1420.31 290.089C1412.24 270.028 1400.75 251.379 1390.74 232.517Z" fill="#323A14"/>
<path d="M1458.27 369.476C1440.35 371.727 1424.09 369.784 1406.94 364.941C1399.29 362.733 1392 359.287 1385.34 354.724C1368.85 343.52 1356.16 327.112 1343.74 311.086L1311.31 269.072C1315.58 264.188 1319.27 258.775 1322.31 252.951L1292.51 258.94C1289 228.142 1259.44 207.963 1250.11 178.513C1247.63 170.541 1246.61 162.137 1247.11 153.758C1247.13 151.572 1247.54 149.409 1248.32 147.386C1250.61 142.075 1256.69 140.058 1262.14 139.898C1273.23 139.559 1283.77 144.677 1293.65 150.051C1327.82 168.669 1359.72 191.644 1388.65 218.467C1389.14 218.748 1389.58 219.133 1389.93 219.598C1390.27 220.064 1390.53 220.601 1390.67 221.175C1390.82 221.749 1390.85 222.348 1390.77 222.937C1390.69 223.525 1390.5 224.089 1390.2 224.595L1383.07 244.019L1403.84 232.411C1404.52 231.925 1405.33 231.693 1406.15 231.753C1407.11 232.098 1407.9 232.826 1408.36 233.781C1418.76 249.361 1439.15 255.149 1448.47 271.483C1450.69 275.417 1452.16 279.777 1452.79 284.315C1453.42 288.853 1453.21 293.479 1452.15 297.927C1454.11 294.406 1456.6 291.255 1459.53 288.603C1467.1 297.757 1474.78 307.092 1479.37 318.254C1483.96 329.416 1485.07 342.915 1479.37 353.503L1470.68 365.185C1467.31 368.116 1462.65 368.923 1458.27 369.476Z" fill="#637427"/>
<path d="M1256.42 150.062C1304.25 192.001 1353.7 238.953 1403.61 291.427C1427.19 316.208 1449.57 340.794 1470.74 365.185L1476.08 358.006C1456.01 334.45 1434.21 310.406 1410.56 286.202C1362.36 236.904 1310.85 191.403 1256.42 150.062Z" fill="#789022"/>
<path d="M1352.32 66.502C1385.12 122.948 1418.01 184.97 1449.79 252.727C1464.81 284.737 1478.76 316.187 1491.64 347.078L1498.64 341.343C1486.55 311.606 1472.98 280.871 1457.74 249.446C1426.89 185.794 1391.65 124.647 1352.32 66.502Z" fill="#789022"/>
<path d="M1545.06 360.215C1560.89 346.175 1572.13 330.308 1581.8 311.362C1586.09 302.888 1589.13 293.76 1590.8 284.302C1594.97 260.937 1592.15 236.935 1589.32 213.369L1581.91 151.772C1574.74 151.709 1567.61 150.721 1560.67 148.83L1588.73 127.25C1567.39 99.9771 1574.73 58.0484 1559.11 26.74C1554.82 18.2911 1549.05 10.7899 1542.11 4.63936C1540.38 2.94657 1538.37 1.6136 1536.18 0.709862C1530.27 -1.41418 1523.88 2.34538 1519.47 7.01828C1510.47 16.5765 1506.24 29.8517 1502.69 42.7872C1490.43 87.5399 1483.35 133.714 1481.62 180.287C1481.45 180.943 1481.41 181.629 1481.51 182.302C1481.6 182.975 1481.82 183.62 1482.15 184.199C1482.49 184.778 1482.93 185.279 1483.46 185.669C1483.98 186.059 1484.57 186.331 1485.2 186.468L1505.98 195.41L1480.61 204.629C1479.69 204.848 1478.87 205.382 1478.27 206.147C1477.65 207.209 1477.9 208.494 1478.12 209.684C1482.12 231.094 1470.68 253.62 1476.12 274.658C1477.46 279.703 1479.71 284.419 1482.77 288.535C1485.82 292.652 1489.61 296.089 1493.91 298.65C1489.62 297.613 1485.2 297.34 1480.83 297.842C1482.05 311.649 1483.32 325.805 1488.45 338.613C1493.58 351.421 1503.26 362.976 1515.98 366.311L1531.92 367.819C1536.92 367.118 1541.19 363.645 1545.06 360.215Z" fill="#637427"/>
<path d="M1531.88 10.0027C1527.14 85.0982 1525.05 165.557 1526.88 250.763C1527.76 291.007 1529.43 330.036 1531.88 367.851L1522.08 366.916C1519.41 330.733 1517.71 292.628 1517.35 252.781C1516.63 171.587 1521.49 90.4462 1531.88 10.0027Z" fill="#789022"/>
<path d="M173.76 307.475C158.55 300.986 143.14 293.668 126.76 293.233C142.05 288.528 157.62 284.301 173.53 283.473C185.69 282.836 231.84 285.777 226.15 308.239C221.05 328.354 184 311.829 173.76 307.475Z" fill="#596A19"/>
<path d="M180.1 270.208C165.84 261.638 151.49 252.154 135.3 249.456C151.05 246.95 167.01 244.964 182.88 246.387C195.01 247.449 240.38 256.912 231.93 278.375C224.34 297.629 189.68 275.975 180.1 270.208Z" fill="#596A19"/>
<path d="M186.35 234.556C172.79 224.786 159.21 214.112 143.28 210.023C159.17 208.876 175.23 208.271 190.94 211.085C202.94 213.21 247.45 226.506 237.39 247.194C228.37 265.695 195.47 241.13 186.35 234.556Z" fill="#596A19"/>
<path d="M212.879 203.662C203.969 195.729 195.099 187.158 184.129 183.059C195.429 183.462 206.809 184.259 217.709 187.423C226.039 189.834 256.559 202.61 248.059 216.438C240.439 228.832 218.879 208.993 212.879 203.662Z" fill="#596A19"/>
<path d="M224.818 174.892C217.398 166.459 210.088 157.443 200.348 152.313C210.778 154.044 221.248 156.157 231.028 160.406C238.498 163.655 265.438 179.193 256.028 190.981C247.688 201.57 229.798 180.563 224.818 174.892Z" fill="#596A19"/>
<path d="M238.499 157.368C230.349 149.934 222.239 141.948 212.149 138.05C222.579 138.539 233.069 139.388 243.149 142.426C250.819 144.741 278.869 156.848 270.899 169.518C269.632 171.275 267.835 172.516 265.809 173.033C258.479 174.945 251.209 168.891 238.499 157.368Z" fill="#596A19"/>
<path d="M255.149 137.955C249.609 129.044 244.259 119.624 236.149 113.358C245.419 116.651 254.649 120.293 262.949 125.763C269.289 129.947 291.599 148.522 281.349 157.74C272.129 166.013 258.879 143.934 255.149 137.955Z" fill="#596A19"/>
<path d="M277.389 122.109C276.449 114.07 275.809 105.743 272.279 98.5642C277.529 104.129 282.649 109.917 286.539 116.619C289.539 121.738 298.779 142.373 288.879 144.964C279.999 147.279 277.999 127.515 277.389 122.109Z" fill="#596A19"/>
<path d="M309.808 113.825C315.728 108.717 322.038 103.726 325.888 96.7268C324.238 104.405 322.338 112.094 319.058 119.157C316.548 124.552 304.988 143.827 297.668 136.287C291.098 129.533 305.828 117.256 309.808 113.825Z" fill="#596A19"/>
<path d="M268.339 343.838C283.399 350.656 299.189 357.081 310.999 369.125C303.339 354.256 295.159 339.601 284.479 327.058C276.319 317.5 241.769 284.843 230.809 304.979C220.999 323.044 258.209 339.229 268.339 343.838Z" fill="#596A19"/>
<path d="M281.559 311.818C297.349 316.491 313.799 320.58 327.039 330.85C317.589 317.235 307.639 303.832 295.479 292.904C286.189 284.556 247.859 257.103 239.479 278.609C231.999 297.916 270.999 308.685 281.559 311.818Z" fill="#596A19"/>
<path d="M287.259 276.23C303.349 279.533 320.059 282.198 334.029 291.3C323.569 278.555 312.639 266.034 299.689 256.189C289.789 248.67 249.499 224.594 242.829 246.748C236.839 266.618 276.439 274.021 287.259 276.23Z" fill="#596A19"/>
<path d="M285.239 236.213C296.819 237.275 308.799 237.923 319.239 243.286C310.999 235.077 302.439 227.079 292.629 221.111C285.129 216.555 255.059 202.632 251.849 218.785C248.999 233.271 277.449 235.469 285.239 236.213Z" fill="#596A19"/>
<path d="M293.589 208.738C304.459 208.356 315.589 207.485 325.919 211.191C317.399 204.564 308.599 198.182 298.859 193.838C291.419 190.514 262.039 181.221 260.779 196.589C259.659 210.384 286.289 208.993 293.589 208.738Z" fill="#596A19"/>
<path d="M305.048 189.356C315.748 190.249 326.808 190.695 336.538 195.527C328.848 188.029 320.868 180.743 311.758 175.348C304.758 171.217 276.908 158.675 274.088 173.617C271.558 187.009 297.848 188.751 305.048 189.356Z" fill="#596A19"/>
<path d="M313.659 164.325C322.269 162.477 331.049 160.172 339.719 161.659C332.089 157.602 324.279 153.779 315.969 151.708C309.629 150.125 285.049 146.929 285.969 159.344C286.849 170.484 307.879 165.567 313.659 164.325Z" fill="#596A19"/>
<path d="M317.388 146.578C323.388 145.293 329.478 143.689 335.508 144.72C330.275 141.742 324.735 139.418 318.998 137.795C314.588 136.733 297.488 134.482 298.148 143.105C298.738 150.858 313.368 147.438 317.388 146.578Z" fill="#596A19"/>
<path d="M212.369 382.517C215.189 360.441 218.722 338.493 222.969 316.672C225.119 305.775 227.379 294.921 229.969 284.131C232.559 273.341 235.169 262.583 238.089 251.899C241.009 241.215 244.279 230.658 247.889 220.187C251.444 209.702 255.602 199.459 260.339 189.516C262.73 184.552 265.374 179.731 268.259 175.072C271.119 170.406 274.119 165.854 277.259 161.415C283.545 152.545 290.377 144.126 297.709 136.213C290.666 144.381 284.138 153.034 278.169 162.116C275.202 166.647 272.379 171.281 269.699 176.017C267.001 180.721 264.547 185.578 262.349 190.567C258.009 200.583 254.242 210.868 251.069 221.366C247.849 231.859 244.969 242.461 242.429 253.173C239.889 263.879 237.529 274.626 235.429 285.448C233.329 296.27 231.429 307.124 229.629 317.999C226.129 339.756 223.362 361.62 221.329 383.59L212.369 382.517Z" fill="#596A19"/>
<path d="M223.319 287.423C214.069 273.054 205.109 257.846 191.699 247.842C206.879 252.961 222.029 258.643 235.699 267.34C246.139 273.989 282.959 303.672 266.479 318.987C251.679 332.729 229.529 297.088 223.319 287.423Z" fill="#2D350D"/>
<path d="M248.088 260.193C240.728 244.645 233.759 228.333 221.708 216.491C236.119 223.702 250.428 231.476 262.868 242.033C272.379 250.104 305.159 284.726 286.869 297.576C270.519 309.099 252.998 270.643 248.088 260.193Z" fill="#2D350D"/>
<path d="M271.999 234.248C265.839 218.116 260.139 201.23 248.999 188.432C262.809 196.854 276.469 205.828 288.079 217.426C296.939 226.272 326.979 263.602 307.799 274.838C290.589 284.928 276.089 245.091 271.999 234.248Z" fill="#2D350D"/>
<path d="M310.178 224.276C306.918 212.413 304.038 200.062 297.058 190.174C306.238 197.173 315.278 204.554 322.688 213.624C328.348 220.548 347.028 249.18 332.738 255.659C319.908 261.447 312.368 232.199 310.178 224.276Z" fill="#2D350D"/>
<path d="M335.148 207.358C333.398 195.962 332.048 184.152 326.638 174.148C334.398 181.795 341.998 189.686 347.898 198.989C352.408 206.094 366.678 234.917 352.718 239.197C340.198 243.031 336.328 215.015 335.148 207.358Z" fill="#2D350D"/>
<path d="M355.717 200.847C352.827 189.866 350.277 178.428 343.927 169.231C352.337 175.784 360.617 182.697 367.367 191.14C372.527 197.598 389.518 224.222 376.258 230.053C374.285 230.763 372.142 230.732 370.188 229.968C363.108 227.281 360.237 217.957 355.717 200.847Z" fill="#2D350D"/>
<path d="M379.707 194.539C379.757 183.919 380.237 172.874 376.757 162.869C382.757 171.068 388.507 179.543 392.537 188.995C395.617 196.217 404.447 224.828 391.107 226.442C379.127 227.918 379.667 201.739 379.707 194.539Z" fill="#2D350D"/>
<path d="M406.477 194.539C409.917 187.307 413.737 180.01 414.557 171.95C416.007 179.671 417.237 187.508 416.967 195.378C416.767 201.389 413.657 224.053 404.077 220.314C395.477 216.99 404.167 199.382 406.477 194.539Z" fill="#2D350D"/>
<path d="M437.768 206.773C445.368 206.019 453.218 205.595 460.088 202.058C454.688 207.464 449.088 212.678 442.668 216.661C437.758 219.666 418.058 228.864 415.918 218.286C413.998 208.781 432.658 207.283 437.768 206.773Z" fill="#2D350D"/>
<path d="M281.268 364.696C289.738 376.75 299.038 388.825 302.068 403.088C303.928 388.783 305.298 374.34 303.478 360.246C302.088 349.478 291.868 309.641 272.048 318.966C254.258 327.292 275.578 356.582 281.268 364.696Z" fill="#2D350D"/>
<path d="M310.658 354.681C321.338 367.882 332.868 380.998 338.498 397.343C337.768 380.446 336.498 363.432 332.118 347.173C328.768 334.747 311.278 289.303 293.118 302.26C276.768 313.889 303.478 345.813 310.658 354.681Z" fill="#2D350D"/>
<path d="M333.998 328.46C345.648 340.705 358.138 352.791 364.998 368.594C362.998 351.824 360.438 334.97 354.828 319.135C350.538 307.039 329.648 263.241 312.508 277.717C297.138 290.705 326.178 320.24 333.998 328.46Z" fill="#2D350D"/>
<path d="M353.278 294.008C362.338 301.761 371.968 309.333 377.878 319.974C375.318 308.292 372.388 296.61 367.358 285.83C363.508 277.621 345.798 248.288 334.678 259.821C324.698 270.166 347.198 288.793 353.278 294.008Z" fill="#2D350D"/>
<path d="M374.607 276.092C383.837 282.198 393.607 288.061 400.207 297.215C396.577 286.68 392.607 276.177 386.787 266.82C382.347 259.662 362.787 234.599 353.697 246.642C345.537 257.432 368.407 271.992 374.607 276.092Z" fill="#2D350D"/>
<path d="M394.278 266.757C402.708 273.819 411.668 280.712 417.218 290.482C414.758 279.713 411.938 268.934 407.218 259.068C403.598 251.527 386.978 224.637 376.818 235.395C367.668 245.028 388.608 261.999 394.278 266.757Z" fill="#2D350D"/>
<path d="M414.538 251.028C422.658 254.565 431.168 257.846 437.598 264.187C433.378 256.317 428.878 248.522 423.068 241.884C418.618 236.829 399.858 219.656 394.148 230.542C388.998 240.312 409.078 248.702 414.538 251.028Z" fill="#2D350D"/>
<path d="M426.927 238.475C432.567 240.928 438.487 243.211 442.927 247.629C440.139 242.059 436.746 236.855 432.817 232.124C429.727 228.598 416.677 216.661 412.707 224.233C409.177 231.019 423.127 236.818 426.927 238.475Z" fill="#2D350D"/>
<path d="M216.109 372.629C230.022 355.956 244.445 339.809 259.379 324.19C266.859 316.395 274.429 308.717 282.188 301.251C289.948 293.785 297.788 286.382 305.808 279.246C313.828 272.109 322.078 265.227 330.548 258.674C339.007 252.056 347.84 245.995 356.998 240.524C361.584 237.806 366.307 235.36 371.148 233.196C375.961 231.009 380.838 228.994 385.778 227.154C395.641 223.487 405.723 220.525 415.958 218.286C405.829 220.904 395.877 224.239 386.168 228.269C381.315 230.287 376.538 232.474 371.838 234.832C367.133 237.149 362.553 239.741 358.118 242.595C349.261 248.346 340.745 254.67 332.618 261.531C324.458 268.349 316.515 275.461 308.788 282.867C301.078 290.301 293.488 297.81 286.098 305.584C278.708 313.358 271.389 321.206 264.229 329.203C249.915 345.24 236.172 361.783 222.999 378.831L216.109 372.629Z" fill="#2D350D"/>
<path d="M102 353.842C85.9998 357.793 69.4398 361.149 55.7998 370.835C65.7998 357.655 76.2698 344.719 88.8498 334.354C98.4698 326.431 137.85 300.73 145.33 322.597C152.06 342.16 112.76 351.134 102 353.842Z" fill="#596A19"/>
<path d="M87.1004 319.401C70.7904 321.058 53.9204 322.035 39.1904 329.681C50.7404 317.999 62.7504 306.688 76.5204 298.192C87.0504 291.703 129.31 271.801 133.97 294.528C138.15 314.919 98.0704 318.286 87.1004 319.401Z" fill="#596A19"/>
<path d="M72.9997 286.383C56.6097 286.638 39.7197 286.16 24.4697 292.521C36.8597 281.901 49.6897 271.621 64.0697 264.335C75.0697 258.77 118.69 242.553 121.61 265.61C124.2 286.298 83.9997 286.213 72.9997 286.383Z" fill="#596A19"/>
<path d="M78.0001 244.911C66.4201 243.849 54.5301 242.224 43.3301 245.548C52.8001 238.995 62.5501 232.719 73.1901 228.672C81.3201 225.571 113.19 217.457 113.72 233.982C114.2 248.755 85.8201 245.633 78.0001 244.911Z" fill="#596A19"/>
<path d="M72.28 214.08C61.64 211.691 50.79 208.77 40.04 210.48C49.53 205.542 59.24 200.922 69.55 198.426C77.42 196.536 107.88 192.861 106.55 208.218C105.42 222.003 79.42 215.684 72.28 214.08Z" fill="#596A19"/>
<path d="M74 191.353C63.31 190.291 52.35 188.624 42 191.576C50.8 185.629 59.86 179.894 69.72 176.315C77.26 173.543 106.79 166.374 107.1 181.625C107.001 183.835 106.197 185.943 104.82 187.604C99.89 193.626 90.66 193.084 74 191.353Z" fill="#596A19"/>
<path d="M77.1903 165.344C67.8403 161.415 58.3703 156.965 48.3203 156.784C57.6903 153.832 67.2203 151.187 76.9703 150.624C84.4203 150.189 112.73 151.825 109.31 165.61C106.25 177.993 83.4703 167.988 77.1903 165.344Z" fill="#596A19"/>
<path d="M86.8502 138.825C81.7402 132.804 76.7202 126.368 69.9502 122.64C77.2502 124 84.5702 125.624 91.3802 128.736C96.5902 131.115 115.31 142.383 108.6 150.539C102.58 157.857 90.2802 142.872 86.8502 138.825Z" fill="#596A19"/>
<path d="M108.94 112.285C111.03 104.501 113.5 96.5675 112.94 88.4961C115.73 95.7816 118.32 103.237 119.44 111.022C120.3 116.969 121.24 139.802 111.17 138.092C102.09 136.542 107.53 117.521 108.94 112.285Z" fill="#596A19"/>
<path d="M199.15 325.985C215.15 322.428 231.57 318.042 247.77 320.675C233.49 313.241 218.85 306.147 203.33 302.366C191.47 299.488 145.55 293.796 147.44 316.958C149.14 337.784 188.36 328.354 199.15 325.985Z" fill="#596A19"/>
<path d="M192.7 291.704C208.15 285.905 223.84 279.246 240.23 279.597C225.13 274.202 209.75 269.284 193.89 267.734C181.77 266.555 135.54 267.405 140.33 290.1C144.62 310.47 182.31 295.601 192.7 291.704Z" fill="#596A19"/>
<path d="M178.15 259.078C193.15 251.984 208.24 243.997 224.6 242.935C209.15 238.857 193.44 235.267 177.51 235.087C165.34 234.949 119.33 239.76 125.83 261.977C131.65 281.911 168.09 263.857 178.15 259.078Z" fill="#596A19"/>
<path d="M154.89 227.525C164.97 221.366 175.11 214.579 186.59 212.583C175.4 210.883 164.07 209.545 152.81 210.639C144.21 211.468 112.06 218.371 118.14 233.558C123.6 247.183 148.11 231.71 154.89 227.525Z" fill="#596A19"/>
<path d="M146.9 199.923C155.59 192.999 164.27 185.48 174.71 182.241C164.15 182.007 153.49 182.145 143.17 184.503C135.28 186.319 106.17 196.599 113.46 209.991C120 221.928 141.05 204.575 146.9 199.923Z" fill="#596A19"/>
<path d="M145.82 177.069C155.07 171.281 164.37 164.909 174.95 162.944C164.6 161.489 154.13 160.374 143.75 161.5C135.82 162.349 106.19 169.061 111.95 183.016C117.12 195.537 139.6 180.956 145.82 177.069Z" fill="#596A19"/>
<path d="M139.36 151.315C145.36 144.56 151.36 137.328 159.27 133.26C150.83 134.588 142.36 136.213 134.44 139.569C128.39 142.139 106.52 154.437 114.01 164.08C120.72 172.693 135.3 155.86 139.36 151.315Z" fill="#596A19"/>
<path d="M132.83 134.503C137.04 129.809 141.18 124.775 146.67 121.95C140.776 122.697 134.984 124.169 129.41 126.336C125.2 128.131 109.99 136.712 115.19 143.392C119.86 149.371 130 137.668 132.83 134.503Z" fill="#596A19"/>
<path d="M174.2 391.788C164.6 371.964 155.65 351.839 147.35 331.412C143.23 321.185 139.23 310.915 135.49 300.518C131.75 290.121 128.11 279.703 124.74 269.178C121.37 258.653 118.33 247.937 115.64 237.222C112.895 226.466 110.771 215.542 109.28 204.511C108.564 198.986 108.137 193.424 108 187.848C107.82 182.29 107.82 176.732 108 171.175C108.362 160.086 109.415 149.034 111.15 138.093C109.795 149.068 109.127 160.127 109.15 171.196C109.15 176.732 109.337 182.251 109.71 187.753C110.042 193.25 110.657 198.724 111.55 204.15C113.395 215.002 115.863 225.724 118.94 236.255C121.96 246.805 125.324 257.241 129.03 267.564C132.73 277.887 136.6 288.135 140.74 298.267C144.88 308.398 149.12 318.445 153.56 328.46C162.44 348.426 171.977 368.027 182.17 387.264L174.2 391.788Z" fill="#596A19"/>
<path d="M234.219 330.372C250.609 330.828 267.499 330.563 282.689 337.105C270.409 326.336 257.689 315.864 243.399 308.43C232.479 302.727 189.019 285.969 185.849 308.983C182.999 329.65 223.209 330.064 234.219 330.372Z" fill="#435013"/>
<path d="M242.328 293.499C258.618 291.629 275.328 288.985 291.198 293.318C277.678 284.386 263.768 275.837 248.668 270.463C237.128 266.353 191.958 255.892 191.668 279.151C191.468 300.019 231.368 294.752 242.328 293.499Z" fill="#435013"/>
<path d="M249.899 258.133C265.999 254.872 282.459 250.805 298.609 253.768C284.449 246.015 269.929 238.687 254.469 234.652C242.659 231.54 196.839 224.987 198.349 248.192C199.709 268.997 239.079 260.321 249.899 258.133Z" fill="#435013"/>
<path d="M237.088 218.594C248.238 215.068 259.578 210.937 271.178 211.797C260.658 207.411 249.918 203.301 238.728 201.655C230.178 200.359 197.388 199.223 200.028 215.461C202.388 230.085 229.598 220.962 237.088 218.594Z" fill="#435013"/>
<path d="M236.889 187.158C246.889 182.538 256.889 177.345 267.779 176.74C257.559 173.936 247.159 171.43 236.599 171.249C228.529 171.079 197.989 173.978 202.179 188.751C205.929 201.973 230.189 190.291 236.889 187.158Z" fill="#435013"/>
<path d="M230.879 165.27C241.139 161.903 251.569 157.974 262.289 158.643C252.539 154.703 242.589 151.06 232.239 149.616C224.339 148.554 194.059 147.81 196.639 162.795C197.151 164.94 198.336 166.835 199.999 168.169C205.999 173.022 214.899 170.527 230.879 165.27Z" fill="#435013"/>
<path d="M222.839 140.461C231.249 134.63 239.689 128.237 249.489 125.911C239.759 125.03 229.929 124.477 220.269 126.007C212.889 127.175 185.469 134.821 191.429 147.598C196.769 159.068 217.189 144.39 222.839 140.461Z" fill="#435013"/>
<path d="M208.349 116.555C212.209 109.567 215.909 102.196 221.839 97.0984C214.939 99.9871 208.079 103.141 201.999 107.655C197.349 111.096 181.149 126.134 189.269 132.687C196.549 138.56 205.759 121.259 208.349 116.555Z" fill="#435013"/>
<path d="M181.689 95.2823C178.159 88.103 174.229 80.8601 173.309 72.8206C171.959 80.5627 170.839 88.4216 171.209 96.2806C171.489 102.292 174.899 124.86 184.429 121.026C192.999 117.585 184.059 100.114 181.689 95.2823Z" fill="#435013"/>
<path d="M133.82 323.893C117.43 323.893 100.55 323.044 85.1904 329.118C97.7704 318.732 110.76 308.696 125.26 301.686C136.33 296.376 180.26 280.934 182.77 304.033C185 324.764 144.84 323.936 133.82 323.893Z" fill="#435013"/>
<path d="M133.64 288.932C117.4 286.563 100.78 283.388 84.79 287.232C98.55 278.736 112.69 270.612 127.94 265.705C139.58 261.967 185.02 252.961 184.64 276.166C184.3 297.035 144.56 290.525 133.64 288.932Z" fill="#435013"/>
<path d="M141.71 253.874C125.71 250.115 109.37 245.527 93.1504 247.991C107.51 240.684 122.22 233.813 137.79 230.234C149.68 227.494 195.66 222.375 193.51 245.527C191.58 266.289 152.47 256.391 141.71 253.874Z" fill="#435013"/>
<path d="M158.52 217.989C147.47 214.112 136.25 209.63 124.63 210.13C135.27 206.073 146.12 202.345 157.35 200.996C165.93 199.934 198.73 199.86 195.65 216.045C192.88 230.552 165.94 220.591 158.52 217.989Z" fill="#435013"/>
<path d="M161.11 189.229C151.28 184.312 141.35 178.8 130.52 177.855C140.82 175.369 151.28 173.224 161.84 173.33C169.91 173.415 200.36 177.271 195.77 191.905C191.65 205.053 167.72 192.553 161.11 189.229Z" fill="#435013"/>
<path d="M157.84 166.619C147.68 162.933 137.36 158.675 126.63 159.025C136.48 155.382 146.53 152.048 156.91 150.933C164.85 150.072 195.13 150.317 192.14 165.217C189.45 178.609 164.67 169.104 157.84 166.619Z" fill="#435013"/>
<path d="M159.28 140.015C152.08 134.705 144.87 128.885 136.36 126.591C144.88 126.081 153.48 125.869 161.88 127.462C168.29 128.683 192.05 136.107 186.54 147.109C181.59 156.976 164.12 143.562 159.28 140.015Z" fill="#435013"/>
<path d="M162.49 122.162C157.49 118.456 152.49 114.409 146.55 112.816C152.469 112.289 158.425 112.492 164.3 113.422C168.76 114.271 185.3 119.443 181.45 127.09C178 134.004 165.86 124.647 162.49 122.162Z" fill="#435013"/>
<path d="M162.109 380.276C168.416 359.269 174.046 338.029 178.999 316.555C181.449 305.828 183.779 295.06 185.829 284.238C187.879 273.416 189.829 262.562 191.489 251.665C193.149 240.769 194.489 229.809 195.429 218.828C196.452 207.857 196.836 196.83 196.579 185.809C196.431 180.305 195.997 174.813 195.279 169.359C194.613 163.879 193.749 158.43 192.689 153.014C190.61 142.164 187.851 131.474 184.429 121.015C188.214 131.362 191.341 141.968 193.789 152.759C195.009 158.154 196.063 163.595 196.949 169.083C197.861 174.575 198.488 180.116 198.829 185.682C199.469 196.809 199.469 207.966 198.829 219.093C198.229 230.202 197.276 241.279 195.969 252.324C194.659 263.369 193.159 274.382 191.389 285.331C189.619 296.281 187.719 307.23 185.609 318.127C181.389 339.919 176.439 361.546 170.759 383.006L162.109 380.276Z" fill="#435013"/>
<path d="M335.998 383.834L312.858 395.144C329.514 361.512 339.114 324.448 340.998 286.5C331.95 321.416 315.846 353.82 293.808 381.455L297.118 330.733C295.336 339.909 291.439 348.473 285.776 355.657C280.113 362.841 272.86 368.421 264.668 371.897C272.528 339.154 277.724 305.754 280.198 272.067C274.23 316.748 258.452 359.312 234.138 396.323C236.841 373.614 241.727 351.259 248.718 329.607C239.393 341.441 228.574 351.852 216.568 360.544C220.421 315.598 233.104 272.01 253.798 232.591C227.649 269.832 206.895 311.021 192.229 354.788C191.663 328.429 192.474 302.058 194.659 275.794C185.439 298.012 175.259 319.748 164.119 341.003C159.712 291.616 168.196 241.894 188.639 197.29C158.429 245.452 183.189 314.335 158.049 365.684C157.002 345.34 157.336 324.942 159.049 304.65C151.045 323.683 141.315 341.844 129.999 358.876C139.751 299.728 142.064 239.466 136.879 179.671C129.31 235.596 116.623 290.603 98.9991 343.913C98.0169 321.977 98.4914 299.995 100.419 278.131C85.0678 301.836 73.3493 327.974 65.6993 355.574C65.6993 289.059 65.6993 222.194 75.6993 156.54L35.9995 325.911L43.7295 150.178C32.1995 215.695 21.1696 282.283 26.8196 348.67C43.8195 362.222 64.6193 366.385 85.7092 369.242L303.888 398.872C310.958 399.839 318.258 400.784 325.138 398.766C332.018 396.748 335.238 391.364 335.998 383.834Z" fill="#2B3408"/>
<path d="M450.997 404.82C443.741 402.805 436.239 401.97 428.747 402.345C424.498 402.713 420.22 402.376 416.067 401.347C411.927 400.285 407.877 397.779 406.068 393.69L382.508 397.152L385.178 381.763C377.374 383.391 369.79 386.038 362.598 389.643C367.333 378.566 372.967 367.949 379.438 357.91C382.016 353.577 385.149 349.645 388.748 346.228C397.488 338.507 409.467 336.67 420.747 335.47C404.947 334.694 393.078 336.468 380.088 346.196C366.628 356.296 354.598 367.214 344.968 381.583C352.748 358.664 360.718 335.817 368.878 313.04C353.692 345.162 327.248 369.677 295.228 381.317C301.665 367.938 310.327 355.906 320.798 345.803C303.433 358.144 287.217 372.216 272.368 387.827C283.027 362.893 291.889 337.136 298.878 310.778C289.793 341.895 271.128 368.869 245.878 387.371L246.628 366.513L225.919 381.71C223.873 350.931 226.967 320.011 235.059 290.376L206.409 358.059C205.22 337.594 206.358 317.051 209.799 296.876C199.221 326.204 185.94 354.35 170.149 380.903C169.632 371.915 170.476 362.897 172.649 354.193C166.628 364.614 159.465 374.239 151.309 382.868C150.469 356.921 154.399 331.049 162.879 306.699C155.071 323.479 146.433 339.807 136.999 355.616C134.433 335.422 135.674 314.888 140.649 295.208C130.939 304.767 128.449 319.316 124.649 332.146C122.649 338.964 120.209 344.55 119.479 351.496C118.799 357.868 115.799 368.074 116.319 374.138L113.609 342.819C112.92 345.383 111.665 347.737 109.949 349.683C108.232 351.63 106.104 353.114 103.739 354.013C110.866 327.653 118.016 301.297 125.189 274.945C126.009 271.918 127.189 268.52 129.869 267.288C135.089 264.93 139.329 272.194 144.389 274.903L132.529 250.901C130.989 247.8 128.239 244.157 125.159 245.41C123.619 246.047 122.739 247.725 121.989 249.276L105.829 282.687L65.3896 366.109C67.2652 335.514 73.7439 305.435 84.5795 277.016C87.8395 268.52 91.5794 259.62 90.8294 250.465C90.4194 245.378 88.6595 240.546 86.9095 235.799L79.9995 216.937C78.2395 212.158 75.8795 206.763 71.1996 205.436C79.4995 221.716 84.1995 240.96 79.9295 258.93C75.8295 276.315 65.4296 292.245 59.3796 308.951C53.2297 325.943 39.3798 335.852 31.2298 350.965C45.8397 323.734 50.9997 288.964 54.4297 258.261C54.6405 255.163 55.2288 252.107 56.1797 249.17C57.1169 246.745 58.5652 244.58 60.4131 242.842C62.261 241.104 64.4595 239.839 66.8396 239.144C64.7396 237.02 62.5596 234.822 59.8396 233.76C57.1196 232.698 53.6697 233.07 51.8397 235.459C50.9497 236.82 50.3522 238.371 50.0897 240.004C45.7297 258.908 45.0897 281.211 38.6198 299.265C33.4198 313.794 22.0599 326.336 17.8399 341.544C21.0199 330.085 20.0399 319.338 21.5799 308.016C23.4399 294.412 29.7798 280.075 33.6498 266.937C35.764 260.27 37.4905 253.471 38.8198 246.578C41.8197 229.469 39.8898 211.882 37.6798 194.646C39.1198 213.443 29.7898 230.372 23.6799 247.311C17.4399 264.527 15.3599 284.907 16.1199 303.322C13.3733 237.01 10.6666 203.85 7.99995 203.843C5.3333 203.836 2.68998 237.53 0.0699996 304.926L0 404.82H450.997Z" fill="#171B07"/>
<path d="M1263.99 384.025L1287.13 395.325C1270.48 361.696 1260.88 324.635 1258.99 286.691C1268.03 321.611 1284.12 354.022 1306.15 381.667L1302.84 330.945C1304.63 340.117 1308.52 348.677 1314.19 355.857C1319.85 363.037 1327.1 368.613 1335.29 372.088C1327.43 339.345 1322.24 305.945 1319.76 272.258C1325.73 316.939 1341.51 359.503 1365.82 396.514C1363.12 373.802 1358.23 351.443 1351.24 329.787C1360.57 341.622 1371.39 352.032 1383.39 360.724C1379.55 315.781 1366.88 272.193 1346.19 232.772C1372.34 270.013 1393.09 311.201 1407.76 354.968C1408.33 328.61 1407.52 302.238 1405.33 275.975C1414.55 298.206 1424.73 319.943 1435.87 341.183C1440.28 291.8 1431.8 242.081 1411.35 197.481C1441.56 245.644 1416.8 314.526 1441.94 365.875C1442.99 345.528 1442.65 325.126 1440.94 304.83C1448.95 323.866 1458.68 342.03 1469.99 359.067C1460.25 299.932 1457.94 239.685 1463.12 179.904C1470.71 235.816 1483.41 290.81 1501.05 344.104C1502.04 322.147 1501.56 300.144 1499.63 278.258C1514.98 301.963 1526.7 328.101 1534.35 355.701C1534.35 289.186 1534.35 222.332 1524.35 156.678L1563.99 326.092L1556.26 150.359C1567.8 215.875 1578.83 282.464 1573.18 348.851C1556.18 362.402 1535.38 366.565 1514.29 369.433L1296.11 399.063C1289.04 400.019 1281.74 400.964 1274.86 398.946C1267.98 396.928 1264.75 391.555 1263.99 384.025Z" fill="#2B3408"/>
<path d="M1148.99 405C1156.25 402.988 1163.75 402.157 1171.24 402.536C1175.5 402.883 1179.77 402.524 1183.92 401.474C1188.06 400.412 1192.11 397.916 1193.92 393.817L1217.48 397.29L1214.81 381.891C1222.61 383.528 1230.2 386.174 1237.39 389.771C1232.65 378.71 1227.02 368.11 1220.54 358.091C1217.97 353.755 1214.83 349.823 1211.23 346.408C1202.49 338.677 1190.51 336.85 1179.23 335.65C1195.03 334.864 1206.9 336.638 1219.89 346.376C1233.35 356.466 1245.38 367.383 1255.01 381.753C1247.23 358.834 1239.26 335.986 1231.1 313.21C1246.29 345.334 1272.73 369.849 1304.75 381.487C1298.31 368.113 1289.65 356.085 1279.18 345.984C1296.56 358.308 1312.8 372.37 1327.66 387.976C1317 363.038 1308.14 337.277 1301.15 310.916C1310.23 342.036 1328.9 369.011 1354.15 387.509L1353.4 366.661L1374.11 381.859C1376.16 351.08 1373.06 320.159 1364.97 290.525L1393.62 358.207C1394.81 337.742 1393.67 317.2 1390.23 297.024C1400.81 326.349 1414.09 354.491 1429.88 381.041C1430.4 372.056 1429.55 363.042 1427.38 354.342C1433.4 364.764 1440.56 374.39 1448.72 383.016C1449.56 357.073 1445.63 331.204 1437.15 306.859C1444.94 323.644 1453.57 339.98 1462.99 355.797C1465.56 335.603 1464.32 315.069 1459.34 295.389C1469.05 304.947 1471.54 319.497 1475.34 332.326C1477.34 339.155 1479.78 344.741 1480.51 351.676C1481.19 358.048 1484.19 368.254 1483.67 374.329L1486.38 342.999C1487.07 345.565 1488.32 347.919 1490.04 349.868C1491.76 351.816 1493.89 353.303 1496.25 354.204C1489.12 327.83 1481.97 301.474 1474.8 275.136C1473.98 272.099 1472.8 268.7 1470.12 267.468C1464.9 265.121 1460.66 272.375 1455.6 275.083L1467.46 251.081C1469 247.98 1471.75 244.337 1474.83 245.601C1476.37 246.228 1477.25 247.906 1478 249.467L1494.21 282.878L1534.65 366.289C1532.77 335.698 1526.29 305.622 1515.46 277.207C1512.2 268.647 1508.46 259.8 1509.21 250.603C1509.62 245.527 1511.38 240.695 1513.13 235.937L1520.04 217.128C1521.8 212.339 1524.16 206.944 1528.84 205.616C1520.54 221.907 1515.84 241.141 1520.11 259.11C1524.21 276.506 1534.61 292.405 1540.66 309.131C1546.81 326.124 1560.66 336.032 1568.81 351.145C1554.2 323.915 1549.02 289.155 1545.61 258.43C1545.4 255.333 1544.81 252.277 1543.86 249.34C1542.92 246.918 1541.47 244.758 1539.62 243.022C1537.77 241.287 1535.58 240.022 1533.2 239.325C1535.3 237.201 1537.48 235.013 1540.2 233.951C1542.92 232.889 1546.37 233.261 1548.2 235.65C1549.09 237.006 1549.69 238.555 1549.95 240.185C1554.31 259.089 1554.95 281.391 1561.42 299.446C1566.62 313.985 1577.98 326.517 1582.2 341.735C1579.02 330.276 1580 319.518 1578.46 308.197C1576.6 294.603 1570.26 280.255 1566.39 267.128C1564.27 260.45 1562.54 253.641 1561.21 246.738C1558.21 229.639 1560.14 212.041 1562.35 194.805C1560.91 213.613 1570.24 230.542 1576.35 247.481C1582.59 264.696 1584.67 285.066 1583.91 303.492C1586.65 237.179 1589.35 204.027 1592.01 204.034C1594.67 204.041 1597.31 237.732 1599.93 305.106L1600 405H1148.99Z" fill="#171B07"/>
<path d="M726.138 400.373L700.241 408.213C717.995 388.846 727.613 368.167 728.434 347.599C719.379 367.083 702.222 385.751 678.157 402.305L680.153 374.75C678.445 379.823 674.313 384.726 668.129 389.021C661.945 393.316 653.901 396.868 644.717 399.36C652.507 381.138 657.249 362.765 658.889 344.443C653.662 368.948 637.217 393.058 610.88 414.827C613.16 402.396 617.933 389.989 625.125 377.801C614.942 384.879 603.012 391.305 589.674 396.895C592.478 372.41 605.36 347.985 627.488 325.194C599.074 347.226 576.928 370.973 561.786 395.647C560.227 381.501 560.232 367.243 561.8 352.94C552.098 365.607 541.288 378.081 529.37 390.36C522.645 364.112 530.555 336.704 552.231 311.144C519.583 339.363 550.109 374.563 523.333 404.113C521.436 393.239 521.106 382.232 522.346 371.176C513.912 382.031 503.49 392.548 491.228 402.578C500.243 370.005 500.772 337.399 492.803 305.612C486.125 336.286 473.605 366.853 455.419 396.881C453.537 385.136 453.311 373.256 454.743 361.328C438.126 375.254 425.721 390.214 417.99 405.651C415.677 369.847 413.352 333.859 422.43 297.758L383.285 391.963L385.956 296.779C375.124 332.923 364.908 369.605 373.636 404.912C393.421 410.916 417.197 411.578 441.258 411.52L690.168 410.907C698.234 410.885 706.561 410.839 714.307 409.231C722.053 407.622 725.536 404.484 726.138 400.373Z" fill="#1C200D"/>
<path d="M618.985 404.248L644.882 412.087C627.127 392.721 617.509 372.042 616.689 351.473C625.743 370.957 642.9 389.625 666.966 406.18L664.969 378.624C666.678 383.697 670.809 388.601 676.993 392.896C683.178 397.191 691.222 400.743 700.406 403.235C692.615 385.013 687.873 366.639 686.233 348.317C691.46 372.822 707.906 396.933 734.242 418.702C731.962 406.27 727.189 393.864 719.998 381.676C730.181 388.754 742.11 395.179 755.449 400.77C752.645 376.285 739.763 351.859 717.634 329.069C746.049 351.101 768.195 374.848 783.336 399.521C784.895 385.375 784.891 371.118 783.322 356.815C793.024 369.482 803.834 381.955 815.752 394.235C822.477 367.986 814.568 340.579 792.891 315.018C825.539 343.238 795.013 378.438 821.79 407.987C823.687 397.114 824.017 386.106 822.776 375.051C831.21 385.906 841.632 396.422 853.895 406.452C844.88 373.88 844.35 341.274 852.32 309.487C858.998 340.161 871.518 370.728 889.703 400.755C891.586 389.011 891.812 377.13 890.38 365.203C906.997 379.129 919.401 394.089 927.133 409.526C929.446 373.721 931.771 337.734 922.693 301.633L961.838 395.838L959.166 300.654C969.999 336.797 980.215 373.479 971.487 408.787C951.702 414.791 927.926 415.453 903.865 415.395L654.954 414.782C646.888 414.759 638.562 414.714 630.815 413.105C623.069 411.497 619.586 408.359 618.985 404.248Z" fill="#1C200D"/>
<path d="M812.061 412.502C819.455 411.225 826.997 411.095 834.43 412.118C838.633 412.846 842.922 412.905 847.143 412.292C851.355 411.647 855.596 409.615 857.735 405.876L880.92 411.271L879.526 396.354C887.166 398.599 894.504 401.798 901.372 405.877C897.566 394.889 892.826 384.259 887.206 374.108C884.994 369.745 882.196 365.716 878.892 362.136C870.82 353.995 859.037 351.178 847.899 349.031C863.702 349.695 875.381 352.441 887.522 362.875C900.099 373.706 911.186 385.19 919.597 399.753C913.732 377.198 907.671 354.694 901.415 332.241C913.902 364.233 938.228 389.969 969.169 403.918C963.857 390.583 956.217 378.335 946.617 367.767C962.901 381.083 977.898 395.947 991.406 412.159C982.839 387.426 976.129 362.067 971.334 336.301C977.826 366.793 994.201 394.184 1017.83 414.077L1018.8 394.112L1038.18 410.45C1042.75 381.269 1042.21 351.497 1036.59 322.507L1059.56 389.62C1062.43 370.202 1062.99 350.504 1061.22 330.951C1069.34 359.869 1080.26 387.9 1093.8 414.634C1095.06 406.105 1094.96 397.428 1093.51 388.931C1098.65 399.407 1105 409.226 1112.41 418.182C1115.38 393.504 1113.6 368.473 1107.15 344.491C1113.55 361.191 1120.81 377.536 1128.91 393.455C1133.12 374.419 1133.58 354.719 1130.24 335.503C1139.13 345.484 1140.41 359.585 1143.14 372.162C1144.57 378.844 1146.54 384.39 1146.7 391.081C1146.85 397.22 1149 407.223 1147.99 412.962L1153.26 383.325C1153.74 385.832 1154.79 388.189 1156.34 390.198C1157.89 392.208 1159.89 393.813 1162.17 394.88C1157.24 369.101 1152.29 343.322 1147.31 317.546C1146.74 314.585 1145.84 311.238 1143.27 309.825C1138.27 307.112 1133.45 313.665 1128.18 315.8L1141.97 293.956C1143.76 291.134 1146.8 287.903 1149.77 289.373C1151.25 290.117 1151.99 291.796 1152.61 293.342L1165.96 326.651L1199.38 409.826C1200.03 380.472 1196.05 351.202 1187.59 323.129C1185.04 314.734 1182.05 305.911 1183.55 297.245C1184.38 292.428 1186.53 287.975 1188.66 283.601L1197.09 266.222C1199.24 261.819 1202.04 256.882 1206.81 256.031C1197.2 270.825 1190.94 288.766 1193.71 306.288C1196.37 323.237 1205.42 339.358 1210.07 355.832C1214.8 372.589 1227.78 383.272 1234.66 398.413C1222.34 371.138 1220.06 337.509 1219.17 307.915C1219.21 304.94 1218.88 301.973 1218.17 299.087C1217.44 296.69 1216.17 294.496 1214.48 292.674C1212.78 290.852 1210.69 289.45 1208.38 288.575C1210.65 286.736 1213 284.832 1215.79 284.061C1218.59 283.289 1222 283.95 1223.62 286.392C1224.4 287.769 1224.87 289.303 1224.99 290.884C1227.78 309.305 1226.59 330.638 1231.55 348.437C1235.53 362.758 1245.82 375.733 1248.77 390.616C1246.54 379.402 1248.4 369.236 1247.8 358.299C1247.07 345.155 1241.93 330.914 1239.16 318.038C1237.6 311.489 1236.44 304.85 1235.68 298.156C1234.1 281.568 1237.47 264.962 1241.09 248.715C1238.11 266.52 1246.01 283.498 1250.7 300.2C1255.5 317.178 1255.9 336.805 1253.63 354.306C1261.82 291.288 1267.24 259.895 1269.9 260.125C1272.55 260.355 1272.42 292.734 1269.48 357.261L1261.34 452.564L812.061 412.502Z" fill="#171B07"/>
</svg>
