<svg width="914" height="193" viewBox="0 0 914 193" fill="none" xmlns="http://www.w3.org/2000/svg">
<path d="M361.138 188.373L335.241 196.213C352.995 176.846 362.613 156.167 363.434 135.599C354.379 155.083 337.222 173.751 313.157 190.305L315.153 162.75C313.445 167.823 309.313 172.726 303.129 177.021C296.945 181.316 288.901 184.868 279.717 187.36C287.507 169.138 292.249 150.765 293.889 132.443C288.662 156.948 272.217 181.058 245.88 202.827C248.16 190.396 252.933 177.989 260.125 165.801C249.942 172.879 238.012 179.305 224.674 184.895C227.478 160.41 240.36 135.985 262.488 113.194C234.074 135.226 211.928 158.973 196.786 183.647C195.227 169.501 195.232 155.243 196.8 140.94C187.098 153.607 176.288 166.081 164.37 178.36C157.645 152.112 165.555 124.704 187.231 99.1436C154.583 127.363 185.109 162.563 158.333 192.113C156.436 181.239 156.106 170.232 157.346 159.176C148.912 170.031 138.49 180.548 126.228 190.578C135.243 158.005 135.772 125.399 127.803 93.6124C121.125 124.286 108.605 154.853 90.4193 184.881C88.5371 173.136 88.3111 161.256 89.7429 149.328C73.126 163.254 60.7214 178.214 52.9898 193.651C50.6767 157.847 48.3519 121.859 57.4301 85.758L18.2853 179.963L20.9564 84.779C10.1239 120.923 -0.0919404 157.605 8.63583 192.912C28.4212 198.916 52.1973 199.578 76.258 199.52L325.168 198.907C333.234 198.885 341.561 198.839 349.307 197.231C357.053 195.622 360.536 192.484 361.138 188.373Z" fill="#1C200D"/>
<path d="M253.985 192.248L279.882 200.087C262.127 180.721 252.509 160.042 251.689 139.473C260.743 158.957 277.9 177.625 301.966 194.18L299.969 166.624C301.678 171.697 305.809 176.601 311.993 180.896C318.178 185.191 326.222 188.743 335.406 191.235C327.615 173.013 322.873 154.639 321.233 136.317C326.46 160.822 342.906 184.933 369.242 206.702C366.962 194.27 362.189 181.864 354.998 169.676C365.181 176.754 377.11 183.179 390.449 188.77C387.645 164.285 374.763 139.859 352.634 117.069C381.049 139.101 403.195 162.848 418.336 187.521C419.895 173.375 419.891 159.118 418.322 144.815C428.024 157.482 438.834 169.955 450.752 182.235C457.477 155.986 449.568 128.579 427.891 103.018C460.539 131.238 430.013 166.438 456.79 195.987C458.687 185.114 459.017 174.106 457.776 163.051C466.21 173.906 476.632 184.422 488.895 194.452C479.88 161.88 479.35 129.274 487.32 97.4871C493.998 128.161 506.518 158.728 524.703 188.755C526.586 177.011 526.812 165.13 525.38 153.203C541.997 167.129 554.401 182.089 562.133 197.526C564.446 161.721 566.771 125.734 557.693 89.6327L596.838 183.838L594.166 88.6538C604.999 124.797 615.215 161.479 606.487 196.787C586.702 202.791 562.926 203.453 538.865 203.395L289.954 202.782C281.888 202.759 273.562 202.714 265.815 201.105C258.069 199.497 254.586 196.359 253.985 192.248Z" fill="#1C200D"/>
<path d="M447.061 200.502C454.455 199.225 461.997 199.095 469.43 200.118C473.633 200.846 477.922 200.905 482.143 200.292C486.355 199.647 490.596 197.615 492.735 193.876L515.92 199.271L514.526 184.354C522.166 186.599 529.504 189.798 536.372 193.877C532.566 182.889 527.826 172.259 522.206 162.108C519.994 157.745 517.196 153.716 513.892 150.136C505.82 141.995 494.037 139.178 482.899 137.031C498.702 137.695 510.381 140.441 522.522 150.875C535.099 161.706 546.186 173.19 554.597 187.753C548.732 165.198 542.671 142.694 536.415 120.241C548.902 152.233 573.228 177.969 604.169 191.918C598.857 178.583 591.217 166.335 581.617 155.767C597.901 169.083 612.898 183.947 626.406 200.159C617.839 175.426 611.129 150.067 606.334 124.301C612.826 154.793 629.201 182.184 652.832 202.077L653.801 182.112L673.182 198.45C677.751 169.269 677.211 139.497 671.588 110.507L694.562 177.62C697.429 158.202 697.985 138.504 696.217 118.951C704.342 147.869 715.258 175.9 728.805 202.634C730.059 194.105 729.96 185.428 728.511 176.931C733.652 187.407 739.997 197.226 747.411 206.182C750.382 181.504 748.595 156.473 742.15 132.491C748.548 149.191 755.811 165.536 763.908 181.455C768.125 162.419 768.577 142.719 765.24 123.503C774.127 133.484 775.41 147.585 778.141 160.162C779.572 166.844 781.544 172.39 781.7 179.081C781.853 185.22 784.002 195.223 782.986 200.962L788.261 171.325C788.737 173.832 789.793 176.189 791.343 178.198C792.893 180.208 794.891 181.813 797.173 182.88C792.241 157.101 787.286 131.322 782.307 105.546C781.739 102.585 780.843 99.2384 778.275 97.825C773.269 95.1122 768.447 101.665 763.184 103.8L776.973 81.9559C778.762 79.1343 781.801 75.9034 784.766 77.3726C786.248 78.1172 786.986 79.7961 787.606 81.342L800.956 114.651L834.381 197.826C835.029 168.472 831.049 139.202 822.592 111.129C820.043 102.734 817.049 93.9113 818.549 85.2446C819.376 80.428 821.526 75.9745 823.66 71.6012L832.095 54.2215C834.241 49.8187 837.036 44.8815 841.807 44.0308C832.2 58.8251 825.935 76.7659 828.711 94.2877C831.366 111.237 840.416 127.358 845.069 143.832C849.798 160.589 862.78 171.272 869.656 186.413C857.341 159.138 855.061 125.509 854.169 95.9145C854.214 92.9404 853.879 89.973 853.173 87.0865C852.439 84.6897 851.174 82.496 849.476 80.6738C847.778 78.8517 845.692 77.4497 843.378 76.5755C845.645 74.7357 847.998 72.8321 850.794 72.0606C853.591 71.289 856.998 71.9501 858.624 74.3923C859.399 75.7693 859.866 77.3027 859.994 78.884C862.782 97.3053 861.586 118.638 866.546 136.437C870.531 150.758 880.817 163.733 883.77 178.616C881.544 167.402 883.404 157.236 882.801 146.299C882.067 133.155 876.931 118.914 874.156 106.038C872.598 99.4893 871.437 92.8497 870.68 86.1565C869.098 69.5682 872.467 52.9618 876.087 36.7147C873.106 54.5195 881.008 71.4979 885.702 88.2004C890.502 105.178 890.898 124.805 888.627 142.306C896.816 79.2884 902.24 47.8949 904.897 48.1251C907.554 48.3552 907.416 80.7338 904.483 145.261L896.338 240.564L447.061 200.502Z" fill="#171B07"/>
</svg>
